PathFileType	4	(X/Y/Z)	E:\Qualisys_Data\Carbon_Farble_Plate\Data\Amateur_Runner\S1\T3\S1T3V22_c3d.trc
DataRate	CameraRate	NumFrames	NumMarkers	Units	OrigDataRate	OrigDataStartFrame	OrigNumFrames
200.000000	200.000000	5	39	mm	200.000000	74	297
Frame#	Time	LSHO			RSHO			LICST			RICST			LASIS			LHEEL			RASIS			LTROC			RTROC			SACR			LTH1			LSK4			LTH2			LTH3			RHM5			LSK2			LTH4			RTH1			LTOE			RTH2			RTH3			RTH4			LLEP			RLEP			LSK1			LSK3			RSK1			LHM5			RSK2			LFT1			RSK3			RSK4			LLME			RLME			RTOE			RHEEL			RFT1			RFT2			LFT2			
		X1	Y1	Z1	X2	Y2	Z2	X3	Y3	Z3	X4	Y4	Z4	X5	Y5	Z5	X6	Y6	Z6	X7	Y7	Z7	X8	Y8	Z8	X9	Y9	Z9	X10	Y10	Z10	X11	Y11	Z11	X12	Y12	Z12	X13	Y13	Z13	X14	Y14	Z14	X15	Y15	Z15	X16	Y16	Z16	X17	Y17	Z17	X18	Y18	Z18	X19	Y19	Z19	X20	Y20	Z20	X21	Y21	Z21	X22	Y22	Z22	X23	Y23	Z23	X24	Y24	Z24	X25	Y25	Z25	X26	Y26	Z26	X27	Y27	Z27	X28	Y28	Z28	X29	Y29	Z29	X30	Y30	Z30	X31	Y31	Z31	X32	Y32	Z32	X33	Y33	Z33	X34	Y34	Z34	X35	Y35	Z35	X36	Y36	Z36	X37	Y37	Z37	X38	Y38	Z38	X39	Y39	Z39	

75	0.37	-1645.657104492188	1538.719482421875	-540.4827270507812	-1581.1572265625	1550.135009765625	-225.5281524658203	-1620.567016601562	1074.639526367188	-485.4971923828125	-1616.988891601562	1094.476928710938	-189.9571990966797	-1576.21728515625	1037.437744140625	-455.6151733398438	-1406.105346679688	114.2093734741211	-393.0499877929688	-1581.92236328125	1043.218383789062	-194.5765228271484	-1669.865112304688	950.1026611328124	-505.2753601074219	-1707.008666992188	973.4652709960938	-162.6280822753906	-1738.357421875	1102.279541015625	-333.7751159667969	-1506.323852539062	830.3795166015625	-468.6647033691406	-1455.844360351562	284.4091491699219	-420.8252868652344	-1573.888427734375	798.0887451171875	-510.0697326660156	-1469.773193359375	733.1011962890625	-455.863037109375	-2200.866455078125	263.5425415039062	-212.3394317626953	-1477.509155273438	379.0580444335938	-459.2564392089844	-1543.928344726562	703.9593505859375	-489.0697937011719	-1625.533081054688	812.8298950195312	-193.9034118652344	-1181.930786132812	229.4302368164062	-408.4131469726562	-1694.424194335938	833.312255859375	-163.8577880859375	-1658.006958007812	717.8949584960938	-203.5162506103516	-1730.144165039062	740.8699340820312	-178.3505096435547	-1453.3076171875	593.164306640625	-443.9430236816406	-1779.957397460938	575.5411987304688	-218.7901153564453	-1395.648193359375	393.347412109375	-456.7956848144531	-1380.907836914062	292.8035583496094	-451.0683898925781	-1951.343627929688	491.2965087890625	-207.8289489746094	-1232.112915039062	172.9093170166016	-463.4031066894531	-1984.270629882812	562.96533203125	-228.6203765869141	-1382.935668945312	96.38802337646484	-361.9434204101562	-2039.437377929688	443.8497009277344	-221.9594421386719	-2069.038330078125	512.9427490234375	-253.1087646484375	-1372.31494140625	163.7639312744141	-439.8622436523438	-2173.281005859375	412.5557250976562	-232.9782562255859	-2162.875244140625	210.8636779785156	-275.3267211914062	-2221.39990234375	455.3758850097656	-286.7992248535156	-2240.682861328125	436.3644409179688	-320.2712097167969	-2249.191650390625	447.8294067382812	-269.8034057617188	-1384.488159179688	87.00735473632812	-411.8185119628906
76	0.375	-1625.032348632812	1535.4287109375	-542.6538696289062	-1560.1298828125	1548.237060546875	-226.9009857177734	-1599.811157226562	1072.777221679688	-485.2151489257812	-1595.804809570312	1091.534545898438	-189.791259765625	-1554.91796875	1035.991088867188	-456.3041687011719	-1388.746337890625	110.6905136108398	-391.605224609375	-1560.518920898438	1040.80712890625	-195.2920532226562	-1649.94482421875	948.692138671875	-505.5664978027344	-1684.968627929688	969.9209594726562	-161.5779571533203	-1716.876586914062	1099.098999023438	-333.0732116699219	-1487.539428710938	826.8923950195312	-469.6090087890625	-1437.858764648438	280.7854309082031	-420.4420471191406	-1554.609252929688	795.8096313476562	-511.3104553222656	-1450.963012695312	729.9961547851562	-458.4557495117188	-2181.275146484375	272.4803161621094	-212.5904998779297	-1458.955078125	375.3449401855469	-458.4744873046875	-1524.809326171875	700.6815185546875	-488.8333435058594	-1601.204345703125	809.7601318359375	-194.5335693359375	-1164.010131835938	225.4781494140625	-408.0173645019531	-1670.423828125	829.24951171875	-163.7088928222656	-1632.876220703125	714.4059448242188	-203.0523529052734	-1703.233520507812	736.2215576171875	-177.8302917480469	-1434.50048828125	590.1124267578125	-443.2064514160156	-1751.940551757812	570.5928344726562	-218.4241180419922	-1376.660278320312	389.5921936035156	-455.2686462402344	-1363.190307617188	289.2643127441406	-449.9331359863281	-1924.386596679688	491.1577758789062	-207.70361328125	-1215.212036132812	169.5400390625	-463.1277160644531	-1956.2353515625	563.8905029296875	-228.6011199951172	-1365.222534179688	92.27897644042967	-360.9719848632812	-2014.428588867188	447.216552734375	-222.5170135498047	-2042.813232421875	517.2059326171875	-254.1322631835938	-1354.82666015625	160.1584320068359	-438.7907104492188	-2148.53515625	420.2185668945312	-233.3232574462891	-2143.643798828125	218.8005218505859	-275.28759765625	-2197.07568359375	464.2787170410156	-287.890625	-2217.161376953125	445.9498291015625	-320.8036804199219	-2224.0341796875	457.5334167480469	-269.4190368652344	-1367.099365234375	83.16858673095703	-410.5424499511719
77	0.38	-1603.755126953125	1531.880493164062	-543.6064453125	-1538.777465820312	1545.866088867188	-228.03955078125	-1579.842529296875	1070.144775390625	-485.3650207519531	-1573.920288085938	1088.810302734375	-189.3144378662109	-1535.037841796875	1033.598999023438	-458.1973571777344	-1372.613159179688	106.6721267700195	-389.9407043457031	-1538.678833007812	1037.941284179688	-195.3353881835938	-1629.335205078125	945.7860717773438	-505.8587341308594	-1662.900146484375	966.1710815429688	-160.5959777832031	-1696.35400390625	1096.0986328125	-332.7997131347656	-1467.490966796875	824.54541015625	-470.6839599609375	-1420.82666015625	277.0608825683594	-420.0046691894531	-1535.400268554688	793.4007568359375	-512.1690063476562	-1430.446044921875	727.4797973632812	-459.5781555175781	-2160.093017578125	280.7652893066406	-213.5196533203125	-1441.494750976562	371.9017639160156	-458.7228698730469	-1505.3779296875	698.2281494140625	-488.8058776855469	-1577.023193359375	807.2030639648438	-194.3072662353516	-1148.039794921875	220.8128967285156	-408.0589599609375	-1646.632690429688	824.67431640625	-163.2259063720703	-1606.21875	710.908203125	-203.0570983886719	-1678.676879882812	731.369140625	-177.9973297119141	-1415.779907226562	586.7329711914062	-442.7850952148438	-1723.548828125	565.009033203125	-218.0503540039062	-1359.500122070312	385.2763671875	-454.1265258789062	-1345.5576171875	285.2091369628906	-448.158935546875	-1898.375854492188	490.8840637207031	-208.5877838134766	-1200.981689453125	165.5188903808594	-462.1489868164062	-1926.952758789062	563.9993286132812	-228.7481384277344	-1349.390747070312	88.16561126708984	-359.6446838378906	-1989.642944335938	449.5922546386719	-223.8540802001953	-2015.723999023438	520.8153076171875	-254.2159729003906	-1339.305419921875	156.0591735839844	-437.7364501953125	-2124.250732421875	427.3396606445312	-233.829833984375	-2124.72119140625	226.1130523681641	-275.8621215820312	-2172.247802734375	473.9400329589844	-288.0273742675781	-2192.249755859375	455.4037170410156	-321.37646484375	-2199.502197265625	467.1160583496094	-271.5005187988281	-1351.4375	79.21929168701172	-408.9737548828125
78	0.385	-1581.673461914062	1527.873901367188	-544.269287109375	-1518.0615234375	1543.092163085938	-229.4044342041016	-1559.792602539062	1067.837280273438	-485.8699645996094	-1552.1982421875	1085.626708984375	-188.7883148193359	-1514.29931640625	1031.607055664062	-457.7939147949219	-1358.207397460938	102.1519088745117	-387.962890625	-1517.688110351562	1034.771240234375	-195.8540649414062	-1608.851440429688	943.4981079101562	-505.30322265625	-1638.06494140625	961.7059326171876	-159.3930206298828	-1675.756591796875	1092.668579101562	-332.57275390625	-1446.330444335938	823.2294921875	-472.3816223144531	-1406.186767578125	273.0573120117188	-419.1797180175781	-1515.383544921875	791.0410766601562	-511.8465576171875	-1410.11669921875	725.5634155273438	-460.7157287597656	-2138.0849609375	289.6517028808594	-213.4884643554688	-1424.523803710938	367.5992431640625	-459.3187561035156	-1485.4404296875	696.4625854492188	-487.960205078125	-1553.279907226562	803.6336059570312	-194.7038421630859	-1133.2138671875	215.2553863525391	-408.0021667480469	-1622.263671875	820.1539916992188	-163.4752502441406	-1580.179565429688	707.089599609375	-202.6930084228516	-1653.58837890625	725.9559936523438	-177.9860992431641	-1397.223388671875	583.412841796875	-442.5340881347656	-1693.386596679688	559.810302734375	-217.0888671875	-1342.603393554688	381.1011962890625	-452.8777770996094	-1328.963012695312	280.6642456054688	-446.7236938476562	-1870.55029296875	488.3878479003906	-206.8820648193359	-1186.386108398438	159.7696685791016	-461.3592834472656	-1897.977294921875	564.0878295898438	-229.03271484375	-1334.793090820312	83.8054428100586	-357.6985168457031	-1963.509399414062	451.8644104003906	-223.9223022460938	-1987.563842773438	523.7798461914062	-254.6612396240234	-1324.513916015625	151.3242950439453	-436.2530212402344	-2098.958984375	434.9819641113281	-234.7295074462891	-2104.62548828125	233.7005004882812	-276.4687194824219	-2145.12060546875	482.3155822753906	-288.8818054199219	-2165.8740234375	464.0810852050781	-321.3639526367188	-2173.3818359375	476.5666198730469	-271.7549438476562	-1337.208618164062	75.4638671875	-407.4773559570312
79	0.39	-1559.705932617188	1523.0576171875	-545.129150390625	-1496.754150390625	1540.33203125	-230.5236968994141	-1539.938598632812	1065.095825195312	-485.7561950683594	-1531.112182617188	1082.081787109375	-188.9766998291016	-1494.851806640625	1029.05810546875	-459.4674072265625	-1345.510986328125	97.16083526611328	-386.4795532226562	-1496.518310546875	1030.919921875	-197.1860656738281	-1588.722534179688	940.6527099609376	-505.3255615234375	-1617.87841796875	956.74267578125	-160.0211791992188	-1654.9921875	1088.540893554688	-331.6632995605469	-1424.8134765625	820.9650268554688	-475.0145263671875	-1391.44775390625	268.9318542480469	-419.1989440917969	-1494.638793945312	788.7957153320312	-511.7632446289062	-1389.142822265625	724.210205078125	-460.8812561035156	-2115.258056640625	297.3389282226562	-214.2621154785156	-1407.882690429688	364.1038208007812	-459.5087280273438	-1466.111572265625	694.5056762695312	-486.3978881835938	-1528.330078125	800.3101196289062	-194.2655029296875	-1120.162231445312	209.7459869384766	-407.6541748046875	-1598.307861328125	815.5203247070312	-163.5873260498047	-1554.160522460938	703.0485229492188	-202.2200317382812	-1626.45849609375	721.5123291015625	-177.3910369873047	-1378.202514648438	579.7825927734375	-442.4210510253906	-1665.675415039062	554.1970825195312	-216.5272369384766	-1325.11865234375	376.4666748046875	-451.3515930175781	-1313.671630859375	275.980712890625	-445.0795288085938	-1843.4765625	487.0089111328125	-206.7566833496094	-1173.86376953125	153.9806976318359	-460.3940734863281	-1866.953125	562.674072265625	-226.8268890380859	-1321.818359375	78.71151733398438	-355.9372253417969	-1937.49560546875	453.4081115722656	-224.5099639892578	-1959.394653320312	526.052978515625	-255.2264099121094	-1311.409545898438	146.5013580322266	-434.7674255371094	-2070.148681640625	441.8513793945312	-233.806640625	-2083.001220703125	240.8409271240234	-276.4837951660156	-2117.2373046875	489.562255859375	-288.9638061523438	-2139.595703125	473.1242370605469	-322.033935546875	-2145.57666015625	485.6788635253906	-271.8208923339844	-1324.671142578125	69.79993438720703	-405.56103515625
